<?xml version="1.0" encoding="UTF-8"?>
<svg id="Layer_2" data-name="Layer 2" xmlns="http://www.w3.org/2000/svg" xmlns:xlink="http://www.w3.org/1999/xlink" viewBox="0 0 226 36.49">
  <defs>
    <style>
      .cls-1 {
        fill: url(#linear-gradient);
      }

      .cls-2 {
        fill: #e76f51;
      }

      .cls-3 {
        stroke: #777878;
      }

      .cls-3, .cls-4 {
        fill: none;
        stroke-miterlimit: 10;
        stroke-width: 2px;
      }

      .cls-4 {
        stroke: #777;
      }

      .cls-5 {
        fill: url(#linear-gradient-3);
      }

      .cls-6 {
        fill: url(#linear-gradient-2);
      }

      .cls-7 {
        fill: url(#radial-gradient);
      }
    </style>
    <radialGradient id="radial-gradient" cx="130.69" cy="244.89" fx="130.69" fy="244.89" r="20.76" gradientTransform="translate(192.52 263.81) rotate(-180)" gradientUnits="userSpaceOnUse">
      <stop offset=".17" stop-color="#000"/>
      <stop offset=".32" stop-color="#030303"/>
      <stop offset=".47" stop-color="#0f0f0f"/>
      <stop offset=".63" stop-color="#232323"/>
      <stop offset=".78" stop-color="#404040"/>
      <stop offset=".93" stop-color="#636363"/>
      <stop offset="1" stop-color="#777"/>
    </radialGradient>
    <linearGradient id="linear-gradient" x1="133.85" y1="242.96" x2="160.12" y2="242.96" gradientTransform="translate(192.52 263.81) rotate(-180)" gradientUnits="userSpaceOnUse">
      <stop offset="0" stop-color="#777"/>
      <stop offset=".07" stop-color="#636363"/>
      <stop offset=".22" stop-color="#404040"/>
      <stop offset=".37" stop-color="#232323"/>
      <stop offset=".53" stop-color="#0f0f0f"/>
      <stop offset=".68" stop-color="#030303"/>
      <stop offset=".83" stop-color="#000"/>
    </linearGradient>
    <linearGradient id="linear-gradient-2" x1="1382.17" y1="-29.74" x2="1400.95" y2="-29.74" gradientTransform="translate(-1382.14 53.39)" gradientUnits="userSpaceOnUse">
      <stop offset="0" stop-color="#f40009"/>
      <stop offset=".14" stop-color="#f2060a"/>
      <stop offset=".32" stop-color="#ef170f"/>
      <stop offset=".53" stop-color="#ea3316"/>
      <stop offset=".76" stop-color="#e35b20"/>
      <stop offset="1" stop-color="#db8d2e"/>
    </linearGradient>
    <linearGradient id="linear-gradient-3" x1="1386.01" y1="-38.26" x2="1412.28" y2="-38.26" gradientTransform="translate(-1382.14 53.39)" gradientUnits="userSpaceOnUse">
      <stop offset="0" stop-color="#db8d2e"/>
      <stop offset=".24" stop-color="#e35b20"/>
      <stop offset=".47" stop-color="#ea3316"/>
      <stop offset=".68" stop-color="#ef170f"/>
      <stop offset=".86" stop-color="#f2060a"/>
      <stop offset=".99" stop-color="#f40009"/>
    </linearGradient>
  </defs>
  <g id="OBJECTS">
    <path class="cls-4" d="m80.92,17.41c0-8.51,6.53-14.59,15.32-14.59,4.88,0,8.95,1.77,11.61,5l-4.19,3.87c-1.89-2.18-4.27-3.31-7.1-3.31-5.28,0-9.03,3.71-9.03,9.03s3.75,9.03,9.03,9.03c2.82,0,5.2-1.13,7.1-3.35l4.19,3.87c-2.66,3.27-6.73,5.04-11.65,5.04-8.75,0-15.28-6.09-15.28-14.59Z"/>
    <path class="cls-4" d="m225,26.28v5.24h-21.85V3.3h21.33v5.24h-14.84v6.13h13.1v5.08h-13.1v6.53h15.36Z"/>
    <g>
      <path class="cls-4" d="m127.44,10.54c1.54-1.37,3.6-2.16,5.92-2.16s4.38.79,5.92,2.16h7.84c-2.49-4.7-7.56-7.72-13.77-7.72s-11.28,3.04-13.77,7.72h7.84Z"/>
      <path class="cls-4" d="m137.89,25.28c-1.31.74-2.84,1.16-4.52,1.16s-3.22-.42-4.52-1.16h-8.65c2.65,4.11,7.4,6.72,13.17,6.72s10.52-2.6,13.17-6.72h-8.65Z"/>
    </g>
    <g>
      <path class="cls-2" d="m122.72,21.58l.7-1.56c.75.55,1.88.93,2.95.93,1.23,0,1.73-.41,1.73-.96,0-1.68-5.21-.52-5.21-3.85,0-1.52,1.23-2.79,3.77-2.79,1.13,0,2.28.27,3.11.79l-.64,1.57c-.83-.47-1.69-.7-2.48-.7-1.23,0-1.7.46-1.7,1.02,0,1.65,5.21.51,5.21,3.8,0,1.5-1.24,2.78-3.8,2.78-1.42,0-2.85-.42-3.65-1.04Z"/>
      <path class="cls-2" d="m135.87,15.2h-2.87v-1.69h7.8v1.69h-2.87v7.27h-2.07v-7.27Z"/>
      <path class="cls-2" d="m144.25,18.52v-5.01h2.07v4.94c0,1.7.74,2.4,2,2.4s2-.7,2-2.4v-4.94h2.05v5.01c0,2.64-1.51,4.09-4.05,4.09s-4.05-1.46-4.05-4.09Z"/>
      <path class="cls-2" d="m156.96,13.51h4.07c2.93,0,4.94,1.77,4.94,4.48s-2.01,4.48-4.94,4.48h-4.07v-8.95Zm3.97,7.25c1.78,0,2.94-1.06,2.94-2.78s-1.16-2.78-2.94-2.78h-1.89v5.55h1.89Z"/>
      <path class="cls-2" d="m170.09,13.51h2.07v8.95h-2.07v-8.95Z"/>
      <path class="cls-2" d="m176.28,17.99c0-2.66,2.07-4.63,4.9-4.63s4.9,1.96,4.9,4.63-2.08,4.63-4.9,4.63-4.9-1.97-4.9-4.63Zm7.7,0c0-1.7-1.2-2.87-2.8-2.87s-2.8,1.16-2.8,2.87,1.2,2.86,2.8,2.86,2.8-1.16,2.8-2.86Z"/>
    </g>
    <g>
      <path class="cls-4" d="m178.76,25.28c-1.29.57-2.79.88-4.47.88h-5.97v-.88h-6.53v6.24h12.82c5.94,0,10.67-2.32,13.29-6.24h-9.14Z"/>
      <path class="cls-4" d="m168.32,10.54v-1.88h5.97c2.49,0,4.6.67,6.18,1.88h8.05c-2.45-4.53-7.47-7.24-13.9-7.24h-12.82v7.24h6.53Z"/>
    </g>
    <path class="cls-3" d="m29.39,33.5c-.47,1.49-2.06,2.33-3.55,1.86h0c-1.49-.47-2.33-2.06-1.86-3.55L33.15,2.99c.47-1.49,2.06-2.33,3.55-1.86h0c1.49.47,2.33,2.06,1.86,3.55l-9.17,28.82Z"/>
    <path class="cls-7" d="m50.11,4.03c-1.46-1.46-3.82-1.46-5.28,0h0c-1.46,1.46-1.46,3.82,0,5.28l11.31,11.31c1.46,1.46,3.82,1.46,5.28,0h0c1.46-1.46,1.46-3.82,0-5.28l-6.69-6.67-4.62-4.64Z"/>
    <path class="cls-1" d="m44.83,31.94c1.46,1.46,3.82,1.46,5.28,0l11.31-11.31c1.43-1.43,1.52-3.66.15-5.13l-.06-.06-.08-.08s-.01-.01-.02-.02c0,0-.01-.01-.02-.02l-6.67-6.66c3.59,3.59-1.23,9.32-1.23,9.32h0s-8.67,8.67-8.67,8.67c-1.46,1.46-1.46,3.82,0,5.28Z"/>
    <path class="cls-6" d="m12.43,31.94c1.46,1.46,3.82,1.46,5.28,0h0c1.46-1.46,1.46-3.82,0-5.28L6.41,15.35c-1.46-1.46-3.82-1.46-5.28,0h0c-1.46,1.46-1.46,3.82,0,5.28l6.69,6.67,4.62,4.64Z"/>
    <path class="cls-5" d="m17.71,4.03c-1.46-1.46-3.82-1.46-5.28,0L1.13,15.34c-1.43,1.43-1.52,3.66-.15,5.13l.06.06.08.08s.01.01.02.02c0,0,.01.01.02.02l6.67,6.66c-3.59-3.59,1.23-9.32,1.23-9.32h0s8.67-8.67,8.67-8.67c1.46-1.46,1.46-3.82,0-5.28Z"/>
  </g>
</svg>